<svg width="27" height="34" viewBox="0 0 27 34" fill="none" xmlns="http://www.w3.org/2000/svg">
<path d="M6.84375 7.11719V20.5703H13.5703C14.4922 20.5703 15.3594 20.3984 16.1719 20.0547C16.9844 19.6953 17.6953 19.2109 18.3047 18.6016C18.9141 17.9922 19.3906 17.2812 19.7344 16.4688C20.0938 15.6406 20.2734 14.7656 20.2734 13.8438C20.2734 12.9219 20.0938 12.0547 19.7344 11.2422C19.3906 10.4141 18.9141 9.69531 18.3047 9.08594C17.6953 8.47656 16.9844 8 16.1719 7.65625C15.3594 7.29688 14.4922 7.11719 13.5703 7.11719H6.84375ZM6.84375 34H0.117188V0.390625H13.5703C14.8047 0.390625 15.9922 0.554688 17.1328 0.882812C18.2734 1.19531 19.3359 1.64844 20.3203 2.24219C21.3203 2.82031 22.2266 3.52344 23.0391 4.35156C23.8672 5.16406 24.5703 6.07031 25.1484 7.07031C25.7422 8.07031 26.1953 9.14062 26.5078 10.2812C26.8359 11.4219 27 12.6094 27 13.8438C27 15.6875 26.6484 17.4297 25.9453 19.0703C25.2422 20.6953 24.2812 22.1172 23.0625 23.3359C21.8438 24.5547 20.4141 25.5156 18.7734 26.2188C17.1484 26.9219 15.4141 27.2734 13.5703 27.2734H6.84375V34Z" fill="#9561FF"/>
</svg>
